<svg width="125" height="125" viewBox="0 0 125 125" fill="none" xmlns="http://www.w3.org/2000/svg">
<path d="M62.5 0C28.087 0 0 28.0871 0 62.5C0 96.913 28.087 125 62.5 125C96.913 125 125 96.913 125 62.5C125 28.0871 96.913 0 62.5 0ZM17.4595 62.5C17.4595 49.5952 23.0263 37.7025 31.8826 29.6053C35.4251 26.3158 41.498 27.3279 44.0283 31.6296L59.7166 58.7045C61.2348 61.2349 61.2348 64.2712 59.7166 66.8016L44.0283 93.8765C41.498 98.4312 35.4251 99.1903 31.6296 95.6478C23.0263 87.0445 17.4595 75.4049 17.4595 62.5ZM80.9717 93.3704L65.2834 66.2956C63.7652 63.7652 63.7652 60.7288 65.2834 58.1984L80.9717 31.1235C83.502 26.8218 89.3219 25.8097 93.1174 29.0992C101.974 37.1964 107.54 49.0891 107.54 61.9939C107.54 74.8988 101.974 86.7915 93.1174 94.8887C89.3219 98.9373 83.502 97.9251 80.9717 93.3704Z" fill="white"/>
</svg>
